<svg width="33" height="33" viewBox="0 0 33 33" fill="none" xmlns="http://www.w3.org/2000/svg">
<circle cx="16.5" cy="16.5" r="16" fill="white" stroke="#CBCBCB"/>
<g clip-path="url(#clip0_118_839)">
<path d="M24.1956 12.5481C24.0198 12.3371 23.7997 12.1675 23.551 12.0511C23.3022 11.9348 23.0309 11.8747 22.7562 11.875H12.6512L12.625 11.6556C12.5713 11.1996 12.3521 10.7792 12.0091 10.474C11.666 10.1689 11.2229 10.0002 10.7637 10H10.625C10.4592 10 10.3003 10.0658 10.1831 10.1831C10.0658 10.3003 10 10.4592 10 10.625C10 10.7908 10.0658 10.9497 10.1831 11.0669C10.3003 11.1842 10.4592 11.25 10.625 11.25H10.7637C10.9168 11.25 11.0646 11.3062 11.179 11.4079C11.2934 11.5097 11.3665 11.6498 11.3844 11.8019L12.2444 19.1144C12.3337 19.8749 12.699 20.5761 13.2712 21.085C13.8433 21.5939 14.5824 21.875 15.3481 21.875H21.875C22.0408 21.875 22.1997 21.8092 22.3169 21.6919C22.4342 21.5747 22.5 21.4158 22.5 21.25C22.5 21.0842 22.4342 20.9253 22.3169 20.8081C22.1997 20.6908 22.0408 20.625 21.875 20.625H15.3481C14.9613 20.6239 14.5842 20.5032 14.2687 20.2794C13.9532 20.0556 13.7146 19.7397 13.5856 19.375H21.0356C21.7683 19.375 22.4777 19.1176 23.0399 18.6478C23.6021 18.1779 23.9813 17.5254 24.1112 16.8044L24.6019 14.0831C24.6508 13.8131 24.6398 13.5357 24.5696 13.2704C24.4994 13.0051 24.3717 12.7585 24.1956 12.5481ZM23.375 13.8612L22.8837 16.5825C22.8057 17.0156 22.5778 17.4075 22.2399 17.6895C21.902 17.9715 21.4757 18.1257 21.0356 18.125H13.3869L12.7987 13.125H22.7562C22.8481 13.1245 22.9389 13.1441 23.0222 13.1827C23.1055 13.2212 23.1794 13.2776 23.2385 13.3479C23.2975 13.4182 23.3404 13.5006 23.364 13.5893C23.3876 13.6781 23.3913 13.7709 23.375 13.8612Z" fill="#545F71"/>
<path d="M14.375 25C15.0654 25 15.625 24.4404 15.625 23.75C15.625 23.0596 15.0654 22.5 14.375 22.5C13.6846 22.5 13.125 23.0596 13.125 23.75C13.125 24.4404 13.6846 25 14.375 25Z" fill="#545F71"/>
<path d="M20.625 25C21.3154 25 21.875 24.4404 21.875 23.75C21.875 23.0596 21.3154 22.5 20.625 22.5C19.9346 22.5 19.375 23.0596 19.375 23.75C19.375 24.4404 19.9346 25 20.625 25Z" fill="#545F71"/>
</g>
<defs>
<clipPath id="clip0_118_839">
<rect width="15" height="15" fill="white" transform="translate(10 10)"/>
</clipPath>
</defs>
</svg>
