<svg width="43" height="43" viewBox="0 0 43 43" fill="none" xmlns="http://www.w3.org/2000/svg">
<path d="M16.125 21.4999L19.7083 25.0833L27.7708 17.0208M16.4867 36.9098C17.074 36.8322 17.6672 36.9914 18.1349 37.3518L20.2907 39.006C21.0034 39.5535 21.9947 39.5535 22.7053 39.006L24.9427 37.288C25.3607 36.9675 25.8882 36.8262 26.4098 36.8959L29.2085 37.2642C30.0983 37.3816 30.9562 36.8859 31.3006 36.0558L32.3775 33.452C32.5786 32.9643 32.9647 32.5781 33.4524 32.377L36.0561 31.3001C36.8862 30.9577 37.3818 30.0977 37.2644 29.2079L36.91 26.5105C36.8324 25.9232 36.9917 25.33 37.352 24.8622L39.0061 22.7063C39.5535 21.9936 39.5535 21.0022 39.0061 20.2916L37.2883 18.054C36.9678 17.636 36.8264 17.1085 36.8961 16.5869L37.2644 13.788C37.3818 12.8982 36.8862 12.0402 36.0561 11.6958L33.4524 10.6188C32.9647 10.4178 32.5786 10.0316 32.3775 9.54386L31.3006 6.94005C30.9582 6.10993 30.0983 5.61425 29.2085 5.7317L26.4098 6.09998C25.8882 6.17164 25.3607 6.0303 24.9447 5.71179L22.7073 3.99383C21.9947 3.44639 21.0034 3.44639 20.2927 3.99383L18.0553 5.71179C17.6373 6.0303 17.1098 6.17164 16.5883 6.10396L13.7895 5.73568C12.8997 5.61823 12.0418 6.11391 11.6974 6.94403L10.6225 9.54784C10.4195 10.0336 10.0333 10.4198 9.5476 10.6228L6.94393 11.6978C6.11386 12.0422 5.61821 12.9002 5.73565 13.79L6.10391 16.5889C6.17159 17.1105 6.03026 17.638 5.71176 18.054L3.9939 20.2916C3.44649 21.0042 3.44649 21.9956 3.9939 22.7063L5.71176 24.9438C6.03225 25.3619 6.17358 25.8894 6.10391 26.4109L5.73565 29.2098C5.61821 30.0997 6.11386 30.9577 6.94393 31.3021L9.5476 32.379C10.0353 32.5801 10.4215 32.9663 10.6225 33.454L11.6994 36.0578C12.0418 36.8879 12.9017 37.3836 13.7915 37.2662L16.4867 36.9098Z" stroke="#3B0EEE" stroke-width="2" stroke-linecap="round" stroke-linejoin="round"/>
</svg>
