<svg width="43" height="43" viewBox="0 0 43 43" fill="none" xmlns="http://www.w3.org/2000/svg">
<path d="M28.6666 32.2499L32.25 35.8333L39.4166 28.6666M39.4166 17.9166H3.58331M39.4166 21.4999V14.6916C39.4166 12.6847 39.4166 11.6813 39.0261 10.9148C38.6825 10.2405 38.1344 9.69236 37.4601 9.34882C36.6936 8.95825 35.6902 8.95825 33.6833 8.95825H9.31665C7.30979 8.95825 6.30636 8.95825 5.53985 9.34881C4.8656 9.69236 4.31742 10.2405 3.97387 10.9148C3.58331 11.6813 3.58331 12.6847 3.58331 14.6916V28.3082C3.58331 30.3151 3.58331 31.3185 3.97387 32.085C4.31742 32.7593 4.8656 33.3075 5.53985 33.651C6.30636 34.0416 7.30979 34.0416 9.31665 34.0416H21.5" stroke="#3B0EEE" stroke-width="2" stroke-linecap="round" stroke-linejoin="round"/>
</svg>
