<svg width="45" height="45" viewBox="0 0 45 45" fill="none" xmlns="http://www.w3.org/2000/svg">
<rect width="45" height="45" rx="5" fill="black" fill-opacity="0.5"/>
<path d="M21.6036 11.8167C21.8917 11.233 22.0357 10.9412 22.2313 10.848C22.4014 10.7668 22.5991 10.7668 22.7693 10.848C22.9648 10.9412 23.1089 11.233 23.397 11.8167L26.1303 17.3542C26.2154 17.5265 26.2579 17.6126 26.3201 17.6795C26.3751 17.7388 26.4411 17.7867 26.5144 17.8208C26.5972 17.8593 26.6923 17.8732 26.8824 17.901L32.9965 18.7947C33.6403 18.8888 33.9622 18.9359 34.1112 19.0931C34.2408 19.2299 34.3018 19.4179 34.2771 19.6048C34.2488 19.8195 34.0157 20.0465 33.5496 20.5005L29.1271 24.8081C28.9892 24.9424 28.9203 25.0095 28.8758 25.0894C28.8364 25.1601 28.8111 25.2378 28.8014 25.3182C28.7904 25.409 28.8066 25.5038 28.8392 25.6935L29.8827 31.7777C29.9928 32.4194 30.0478 32.7403 29.9444 32.9307C29.8544 33.0963 29.6944 33.2125 29.5091 33.2469C29.296 33.2864 29.0079 33.1349 28.4316 32.8318L22.9657 29.9574C22.7954 29.8678 22.7103 29.823 22.6205 29.8054C22.5411 29.7898 22.4594 29.7898 22.38 29.8054C22.2903 29.823 22.2051 29.8678 22.0348 29.9574L16.5689 32.8318C15.9926 33.1349 15.7045 33.2864 15.4915 33.2469C15.3061 33.2125 15.1461 33.0963 15.0562 32.9307C14.9527 32.7403 15.0078 32.4194 15.1178 31.7777L16.1614 25.6935C16.1939 25.5038 16.2102 25.409 16.1991 25.3182C16.1894 25.2378 16.1641 25.1601 16.1248 25.0894C16.0803 25.0095 16.0113 24.9424 15.8735 24.8081L11.4509 20.5005C10.9848 20.0465 10.7518 19.8195 10.7234 19.6048C10.6987 19.4179 10.7597 19.2299 10.8893 19.0931C11.0383 18.9359 11.3602 18.8888 12.004 18.7947L18.1181 17.901C18.3083 17.8732 18.4033 17.8593 18.4861 17.8208C18.5594 17.7867 18.6254 17.7388 18.6805 17.6795C18.7426 17.6126 18.7852 17.5265 18.8702 17.3542L21.6036 11.8167Z" stroke="#FFC700" stroke-width="2" stroke-linecap="round" stroke-linejoin="round"/>
</svg>
