<svg width="29" height="29" viewBox="0 0 29 29" fill="none" xmlns="http://www.w3.org/2000/svg">
<rect x="0.777832" y="0.777832" width="27.8223" height="27.8223" rx="5" fill="black" fill-opacity="0.5"/>
<path d="M14.1345 8.08372C14.3127 7.72285 14.4017 7.54241 14.5226 7.48476C14.6278 7.4346 14.75 7.4346 14.8552 7.48476C14.9762 7.54241 15.0652 7.72285 15.2434 8.08372L16.9333 11.5074C16.9859 11.6139 17.0122 11.6672 17.0506 11.7085C17.0846 11.7452 17.1254 11.7748 17.1708 11.7959C17.222 11.8197 17.2807 11.8283 17.3983 11.8455L21.1785 12.398C21.5765 12.4562 21.7756 12.4853 21.8677 12.5825C21.9478 12.6671 21.9855 12.7833 21.9703 12.8989C21.9527 13.0316 21.8086 13.172 21.5204 13.4527L18.7861 16.1159C18.7009 16.199 18.6582 16.2405 18.6307 16.2899C18.6064 16.3336 18.5908 16.3816 18.5848 16.4313C18.5779 16.4874 18.588 16.5461 18.6081 16.6634L19.2533 20.4251C19.3213 20.8218 19.3554 21.0202 19.2914 21.1379C19.2358 21.2403 19.1369 21.3122 19.0223 21.3334C18.8906 21.3578 18.7124 21.2642 18.3561 21.0768L14.9767 19.2996C14.8714 19.2442 14.8188 19.2165 14.7633 19.2056C14.7142 19.196 14.6637 19.196 14.6146 19.2056C14.5591 19.2165 14.5065 19.2442 14.4012 19.2996L11.0217 21.0768C10.6655 21.2642 10.4873 21.3578 10.3556 21.3334C10.241 21.3122 10.1421 21.2403 10.0865 21.1379C10.0225 21.0202 10.0565 20.8218 10.1246 20.4251L10.7698 16.6634C10.7899 16.5461 10.7999 16.4874 10.7931 16.4313C10.7871 16.3816 10.7715 16.3336 10.7471 16.2899C10.7196 16.2405 10.677 16.199 10.5918 16.1159L7.85744 13.4527C7.56926 13.172 7.42516 13.0316 7.40763 12.8989C7.39237 12.7833 7.43006 12.6671 7.5102 12.5825C7.60231 12.4853 7.80135 12.4562 8.19941 12.398L11.9796 11.8455C12.0971 11.8283 12.1559 11.8197 12.2071 11.7959C12.2524 11.7748 12.2932 11.7452 12.3273 11.7085C12.3657 11.6672 12.392 11.6139 12.4446 11.5074L14.1345 8.08372Z" stroke="white" stroke-width="2" stroke-linecap="round" stroke-linejoin="round"/>
</svg>
