<svg width="43" height="43" viewBox="0 0 43 43" fill="none" xmlns="http://www.w3.org/2000/svg">
<path d="M15.2292 22.3958C15.2292 22.3958 17.5807 25.0833 21.5 25.0833C25.4193 25.0833 27.7708 22.3958 27.7708 22.3958M26.4271 13.4375H26.445M16.5729 13.4375H16.5908M12.5417 32.25V36.4344C12.5417 37.3891 12.5417 37.8665 12.7374 38.1116C12.9076 38.3249 13.1656 38.4489 13.4385 38.4486C13.7522 38.4483 14.1249 38.1501 14.8704 37.5537L19.1443 34.1345C20.0174 33.4361 20.454 33.0868 20.9401 32.8385C21.3714 32.6181 21.8304 32.4571 22.3048 32.3597C22.8396 32.25 23.3986 32.25 24.5167 32.25H29.025C32.0353 32.25 33.5404 32.25 34.6902 31.6642C35.7016 31.1488 36.5238 30.3266 37.0392 29.3152C37.625 28.1654 37.625 26.6603 37.625 23.65V13.975C37.625 10.9647 37.625 9.45958 37.0392 8.3098C36.5238 7.29843 35.7016 6.47616 34.6902 5.96084C33.5404 5.375 32.0353 5.375 29.025 5.375H13.975C10.9647 5.375 9.45958 5.375 8.3098 5.96084C7.29843 6.47616 6.47616 7.29843 5.96084 8.3098C5.375 9.45958 5.375 10.9647 5.375 13.975V25.0833C5.375 26.7495 5.375 27.5826 5.55815 28.2662C6.05516 30.121 7.50398 31.5698 9.35885 32.0669C10.0424 32.25 10.8755 32.25 12.5417 32.25ZM27.3229 13.4375C27.3229 13.9323 26.9218 14.3333 26.4271 14.3333C25.9323 14.3333 25.5312 13.9323 25.5312 13.4375C25.5312 12.9427 25.9323 12.5417 26.4271 12.5417C26.9218 12.5417 27.3229 12.9427 27.3229 13.4375ZM17.4687 13.4375C17.4687 13.9323 17.0677 14.3333 16.5729 14.3333C16.0782 14.3333 15.6771 13.9323 15.6771 13.4375C15.6771 12.9427 16.0782 12.5417 16.5729 12.5417C17.0677 12.5417 17.4687 12.9427 17.4687 13.4375Z" stroke="#3B0EEE" stroke-width="2" stroke-linecap="round" stroke-linejoin="round"/>
</svg>
