<svg width="23" height="22" viewBox="0 0 23 22" fill="none" xmlns="http://www.w3.org/2000/svg">
<path d="M16.7447 1.81281C17.7095 0.816327 19.3035 0.803437 20.2843 1.78418C21.2381 2.73806 21.2559 4.27903 20.3242 5.25463L17.5456 8.1644C17.3278 8.39247 17.2189 8.50651 17.1518 8.64007C17.0924 8.7583 17.057 8.88715 17.0478 9.01914C17.0373 9.16825 17.0728 9.32189 17.1437 9.62917L18.8716 17.1167C18.9444 17.4321 18.9808 17.5898 18.969 17.7424C18.9586 17.8774 18.9209 18.0089 18.8582 18.1289C18.7873 18.2645 18.6728 18.379 18.4439 18.6079L18.0732 18.9786C17.467 19.5848 17.164 19.8879 16.8538 19.9427C16.5829 19.9906 16.3043 19.9249 16.0834 19.7609C15.8305 19.5731 15.695 19.1665 15.4239 18.3532L13.4141 12.324L10.0688 15.6693C9.86914 15.869 9.76929 15.9688 9.7025 16.0864C9.64334 16.1905 9.60337 16.3045 9.5845 16.4228C9.5632 16.5563 9.57879 16.6967 9.60998 16.9773L9.79369 18.6307C9.82487 18.9114 9.84047 19.0517 9.81917 19.1853C9.8003 19.3036 9.76033 19.4175 9.70116 19.5217C9.63437 19.6393 9.53453 19.7391 9.33484 19.9388L9.13734 20.1363C8.66428 20.6094 8.42775 20.8459 8.1649 20.9144C7.93436 20.9745 7.68993 20.9503 7.47565 20.8461C7.23134 20.7274 7.04579 20.4491 6.67469 19.8924L5.10637 17.54C5.04007 17.4405 5.00692 17.3908 4.96843 17.3457C4.93424 17.3056 4.89694 17.2683 4.85688 17.2341C4.81178 17.1956 4.76206 17.1625 4.66261 17.0962L2.31012 15.5279C1.75348 15.1568 1.47515 14.9712 1.35643 14.7269C1.2523 14.5126 1.2281 14.2682 1.28818 14.0377C1.35668 13.7748 1.59321 13.5383 2.06627 13.0652L2.26378 12.8677C2.46346 12.668 2.56331 12.5682 2.68089 12.5014C2.78505 12.4422 2.899 12.4023 3.0173 12.3834C3.15083 12.3621 3.29117 12.3777 3.57184 12.4089L5.22523 12.5926C5.5059 12.6238 5.64623 12.6394 5.77977 12.6181C5.89807 12.5992 6.01202 12.5592 6.11618 12.5001C6.23376 12.4333 6.3336 12.3334 6.53329 12.1337L9.87861 8.78842L3.84933 6.77866C3.0361 6.50759 2.62949 6.37205 2.44169 6.11914C2.27771 5.8983 2.21193 5.61967 2.25984 5.34881C2.31471 5.03861 2.61778 4.73554 3.22393 4.1294L3.5947 3.75863C3.82359 3.52973 3.93804 3.41529 4.07363 3.3444C4.19364 3.28165 4.32514 3.24394 4.46017 3.23354C4.61272 3.22179 4.77043 3.25818 5.08584 3.33097L12.545 5.05231C12.8549 5.12384 13.0099 5.1596 13.1595 5.14896C13.304 5.13869 13.4445 5.09716 13.5713 5.02724C13.7027 4.95483 13.8133 4.84056 14.0346 4.61202L16.7447 1.81281Z" stroke="black" stroke-width="2" stroke-linecap="round" stroke-linejoin="round"/>
</svg>
