<svg width="19" height="19" viewBox="0 0 19 19" fill="none" xmlns="http://www.w3.org/2000/svg">
<g clip-path="url(#clip0_85_1387)">
<path d="M14.779 7.80448C15.5235 7.79244 16.1335 8.39267 16.1335 9.13729C16.1335 9.86151 15.5553 10.4532 14.8312 10.4699L12.6718 10.5197C12.5025 10.5236 12.4179 10.5255 12.3417 10.5508C12.2743 10.5731 12.212 10.6086 12.1583 10.6552C12.0978 10.7078 12.0529 10.7796 11.9632 10.9232L9.77671 14.4215C9.6846 14.5689 9.63855 14.6426 9.57618 14.696C9.52097 14.7433 9.45673 14.779 9.38736 14.8007C9.30897 14.8253 9.22208 14.8253 9.0483 14.8253L8.76679 14.8253C8.30659 14.8253 8.07648 14.8253 7.9379 14.7283C7.81689 14.6437 7.73608 14.5129 7.7145 14.3669C7.68978 14.1996 7.79269 13.9938 7.9985 13.5821L9.52438 10.5304L6.98449 10.5304C6.83288 10.5304 6.75708 10.5304 6.68709 10.5496C6.62509 10.5667 6.56666 10.5948 6.51458 10.6326C6.45581 10.6752 6.40845 10.7344 6.31374 10.8527L5.75582 11.5501C5.66112 11.6685 5.61376 11.7277 5.55498 11.7703C5.50291 11.8081 5.44448 11.8362 5.38248 11.8532C5.31249 11.8725 5.23669 11.8725 5.08508 11.8725L4.93512 11.8725C4.57596 11.8725 4.39638 11.8725 4.27059 11.7987C4.16026 11.734 4.07666 11.6321 4.03484 11.5112C3.98717 11.3734 4.02239 11.1973 4.09283 10.8451L4.39051 9.35667C4.40309 9.29375 4.40938 9.26229 4.41189 9.23056C4.41412 9.20237 4.41413 9.17405 4.4119 9.14586C4.40938 9.11413 4.40309 9.08267 4.39051 9.01975L4.09283 7.53134C4.02239 7.17915 3.98717 7.00306 4.03485 6.86524C4.07666 6.74437 4.16026 6.64239 4.27059 6.57768C4.39638 6.5039 4.57596 6.5039 4.93512 6.5039L5.08508 6.5039C5.23669 6.5039 5.31249 6.5039 5.38248 6.52318C5.44448 6.54026 5.50291 6.56835 5.55498 6.60609C5.61376 6.6487 5.66112 6.70789 5.75583 6.82628L6.31374 7.52368C6.40845 7.64206 6.45581 7.70126 6.51458 7.74387C6.56666 7.78161 6.62508 7.80969 6.68709 7.82678C6.75708 7.84606 6.83288 7.84606 6.98449 7.84606L9.52438 7.84606L7.9985 4.79429C7.79269 4.38267 7.68978 4.17686 7.7145 4.00956C7.73608 3.86347 7.81689 3.73273 7.9379 3.64809C8.07648 3.55117 8.30659 3.55117 8.76679 3.55117H9.0483C9.22208 3.55117 9.30897 3.55117 9.38736 3.57573C9.45673 3.59747 9.52097 3.63307 9.57618 3.68038C9.63855 3.73383 9.6846 3.80752 9.77671 3.95489L11.9549 7.43996C12.0454 7.58478 12.0906 7.65719 12.1515 7.70995C12.2102 7.76089 12.2793 7.79847 12.354 7.82007C12.4314 7.84245 12.5168 7.84107 12.6875 7.83831L14.779 7.80448Z" stroke="#3B0EEE" stroke-linecap="round" stroke-linejoin="round"/>
</g>
<defs>
<clipPath id="clip0_85_1387">
<rect width="12.8847" height="12.8847" fill="white" transform="translate(9.11035) rotate(45)"/>
</clipPath>
</defs>
</svg>
