<svg width="108" height="25" viewBox="0 0 108 25" fill="none" xmlns="http://www.w3.org/2000/svg">
<rect width="108" height="25" rx="5" fill="#EEFF25" fill-opacity="0.2"/>
<path d="M17.0517 7.15835C17.1957 6.86652 17.2677 6.7206 17.3655 6.67398C17.4506 6.63341 17.5494 6.63341 17.6345 6.67398C17.7323 6.7206 17.8043 6.86652 17.9484 7.15835L19.315 9.92708C19.3576 10.0132 19.3788 10.0563 19.4099 10.0898C19.4374 10.1194 19.4704 10.1434 19.5071 10.1604C19.5485 10.1797 19.596 10.1866 19.6911 10.2005L22.7481 10.6473C23.07 10.6944 23.231 10.7179 23.3055 10.7966C23.3703 10.865 23.4008 10.959 23.3884 11.0524C23.3743 11.1598 23.2577 11.2733 23.0247 11.5003L20.8134 13.654C20.7445 13.7212 20.71 13.7548 20.6878 13.7947C20.6681 13.8301 20.6554 13.8689 20.6506 13.9091C20.6451 13.9545 20.6532 14.0019 20.6695 14.0967L21.1912 17.1389C21.2463 17.4597 21.2738 17.6201 21.2221 17.7153C21.1771 17.7982 21.0971 17.8563 21.0044 17.8735C20.8979 17.8932 20.7538 17.8174 20.4657 17.6659L17.7327 16.2287C17.6476 16.1839 17.605 16.1615 17.5602 16.1527C17.5204 16.1449 17.4796 16.1449 17.4399 16.1527C17.395 16.1615 17.3524 16.1839 17.2673 16.2287L14.5343 17.6659C14.2462 17.8174 14.1021 17.8932 13.9956 17.8735C13.9029 17.8563 13.823 17.7982 13.778 17.7153C13.7263 17.6201 13.7538 17.4597 13.8088 17.1389L14.3306 14.0967C14.3468 14.0019 14.355 13.9545 14.3494 13.9091C14.3446 13.8689 14.3319 13.8301 14.3123 13.7947C14.29 13.7548 14.2555 13.7212 14.1866 13.654L11.9753 11.5003C11.7423 11.2733 11.6258 11.1598 11.6116 11.0524C11.5992 10.959 11.6297 10.865 11.6945 10.7966C11.769 10.7179 11.93 10.6944 12.2519 10.6473L15.3089 10.2005C15.404 10.1866 15.4516 10.1797 15.4929 10.1604C15.5296 10.1434 15.5626 10.1194 15.5901 10.0898C15.6212 10.0563 15.6425 10.0132 15.685 9.92708L17.0517 7.15835Z" stroke="#FFC700" stroke-width="2" stroke-linecap="round" stroke-linejoin="round"/>
<path d="M35.0517 7.15835C35.1957 6.86652 35.2677 6.7206 35.3655 6.67398C35.4506 6.63341 35.5494 6.63341 35.6345 6.67398C35.7323 6.7206 35.8043 6.86652 35.9484 7.15835L37.315 9.92708C37.3576 10.0132 37.3788 10.0563 37.4099 10.0898C37.4374 10.1194 37.4704 10.1434 37.5071 10.1604C37.5485 10.1797 37.596 10.1866 37.6911 10.2005L40.7481 10.6473C41.07 10.6944 41.231 10.7179 41.3055 10.7966C41.3703 10.865 41.4008 10.959 41.3884 11.0524C41.3743 11.1598 41.2577 11.2733 41.0247 11.5003L38.8134 13.654C38.7445 13.7212 38.71 13.7548 38.6878 13.7947C38.6681 13.8301 38.6554 13.8689 38.6506 13.9091C38.6451 13.9545 38.6532 14.0019 38.6695 14.0967L39.1912 17.1389C39.2463 17.4597 39.2738 17.6201 39.2221 17.7153C39.1771 17.7982 39.0971 17.8563 39.0044 17.8735C38.8979 17.8932 38.7538 17.8174 38.4657 17.6659L35.7327 16.2287C35.6476 16.1839 35.605 16.1615 35.5602 16.1527C35.5204 16.1449 35.4796 16.1449 35.4399 16.1527C35.395 16.1615 35.3524 16.1839 35.2673 16.2287L32.5343 17.6659C32.2462 17.8174 32.1021 17.8932 31.9956 17.8735C31.9029 17.8563 31.823 17.7982 31.778 17.7153C31.7263 17.6201 31.7538 17.4597 31.8088 17.1389L32.3306 14.0967C32.3468 14.0019 32.355 13.9545 32.3494 13.9091C32.3446 13.8689 32.3319 13.8301 32.3123 13.7947C32.29 13.7548 32.2555 13.7212 32.1866 13.654L29.9753 11.5003C29.7423 11.2733 29.6258 11.1598 29.6116 11.0524C29.5992 10.959 29.6297 10.865 29.6945 10.7966C29.769 10.7179 29.93 10.6944 30.2519 10.6473L33.3089 10.2005C33.404 10.1866 33.4516 10.1797 33.4929 10.1604C33.5296 10.1434 33.5626 10.1194 33.5901 10.0898C33.6212 10.0563 33.6425 10.0132 33.685 9.92708L35.0517 7.15835Z" stroke="#FFC700" stroke-width="2" stroke-linecap="round" stroke-linejoin="round"/>
<path d="M53.0517 7.15835C53.1957 6.86652 53.2677 6.7206 53.3655 6.67398C53.4506 6.63341 53.5494 6.63341 53.6345 6.67398C53.7323 6.7206 53.8043 6.86652 53.9484 7.15835L55.315 9.92708C55.3576 10.0132 55.3788 10.0563 55.4099 10.0898C55.4374 10.1194 55.4704 10.1434 55.5071 10.1604C55.5485 10.1797 55.596 10.1866 55.6911 10.2005L58.7481 10.6473C59.07 10.6944 59.231 10.7179 59.3055 10.7966C59.3703 10.865 59.4008 10.959 59.3884 11.0524C59.3743 11.1598 59.2577 11.2733 59.0247 11.5003L56.8134 13.654C56.7445 13.7212 56.71 13.7548 56.6878 13.7947C56.6681 13.8301 56.6554 13.8689 56.6506 13.9091C56.6451 13.9545 56.6532 14.0019 56.6695 14.0967L57.1912 17.1389C57.2463 17.4597 57.2738 17.6201 57.2221 17.7153C57.1771 17.7982 57.0971 17.8563 57.0044 17.8735C56.8979 17.8932 56.7538 17.8174 56.4657 17.6659L53.7327 16.2287C53.6476 16.1839 53.605 16.1615 53.5602 16.1527C53.5204 16.1449 53.4796 16.1449 53.4399 16.1527C53.395 16.1615 53.3524 16.1839 53.2673 16.2287L50.5343 17.6659C50.2462 17.8174 50.1021 17.8932 49.9956 17.8735C49.9029 17.8563 49.823 17.7982 49.778 17.7153C49.7263 17.6201 49.7538 17.4597 49.8088 17.1389L50.3306 14.0967C50.3468 14.0019 50.355 13.9545 50.3494 13.9091C50.3446 13.8689 50.3319 13.8301 50.3123 13.7947C50.29 13.7548 50.2555 13.7212 50.1866 13.654L47.9753 11.5003C47.7423 11.2733 47.6258 11.1598 47.6116 11.0524C47.5992 10.959 47.6297 10.865 47.6945 10.7966C47.769 10.7179 47.93 10.6944 48.2519 10.6473L51.3089 10.2005C51.404 10.1866 51.4516 10.1797 51.4929 10.1604C51.5296 10.1434 51.5626 10.1194 51.5901 10.0898C51.6212 10.0563 51.6425 10.0132 51.685 9.92708L53.0517 7.15835Z" stroke="#FFC700" stroke-width="2" stroke-linecap="round" stroke-linejoin="round"/>
<path d="M71.0517 7.15835C71.1957 6.86652 71.2677 6.7206 71.3655 6.67398C71.4506 6.63341 71.5494 6.63341 71.6345 6.67398C71.7323 6.7206 71.8043 6.86652 71.9484 7.15835L73.315 9.92708C73.3576 10.0132 73.3788 10.0563 73.4099 10.0898C73.4374 10.1194 73.4704 10.1434 73.5071 10.1604C73.5485 10.1797 73.596 10.1866 73.6911 10.2005L76.7481 10.6473C77.07 10.6944 77.231 10.7179 77.3055 10.7966C77.3703 10.865 77.4008 10.959 77.3884 11.0524C77.3743 11.1598 77.2577 11.2733 77.0247 11.5003L74.8134 13.654C74.7445 13.7212 74.71 13.7548 74.6878 13.7947C74.6681 13.8301 74.6554 13.8689 74.6506 13.9091C74.6451 13.9545 74.6532 14.0019 74.6695 14.0967L75.1912 17.1389C75.2463 17.4597 75.2738 17.6201 75.2221 17.7153C75.1771 17.7982 75.0971 17.8563 75.0044 17.8735C74.8979 17.8932 74.7538 17.8174 74.4657 17.6659L71.7327 16.2287C71.6476 16.1839 71.605 16.1615 71.5602 16.1527C71.5204 16.1449 71.4796 16.1449 71.4399 16.1527C71.395 16.1615 71.3524 16.1839 71.2673 16.2287L68.5343 17.6659C68.2462 17.8174 68.1021 17.8932 67.9956 17.8735C67.9029 17.8563 67.823 17.7982 67.778 17.7153C67.7263 17.6201 67.7538 17.4597 67.8088 17.1389L68.3306 14.0967C68.3468 14.0019 68.355 13.9545 68.3494 13.9091C68.3446 13.8689 68.3319 13.8301 68.3123 13.7947C68.29 13.7548 68.2555 13.7212 68.1866 13.654L65.9753 11.5003C65.7423 11.2733 65.6258 11.1598 65.6116 11.0524C65.5992 10.959 65.6297 10.865 65.6945 10.7966C65.769 10.7179 65.93 10.6944 66.2519 10.6473L69.3089 10.2005C69.404 10.1866 69.4516 10.1797 69.4929 10.1604C69.5296 10.1434 69.5626 10.1194 69.5901 10.0898C69.6212 10.0563 69.6425 10.0132 69.685 9.92708L71.0517 7.15835Z" stroke="#FFC700" stroke-width="2" stroke-linecap="round" stroke-linejoin="round"/>
<path d="M89.0517 7.15835C89.1957 6.86652 89.2677 6.7206 89.3655 6.67398C89.4506 6.63341 89.5494 6.63341 89.6345 6.67398C89.7323 6.7206 89.8043 6.86652 89.9484 7.15835L91.315 9.92708C91.3576 10.0132 91.3788 10.0563 91.4099 10.0898C91.4374 10.1194 91.4704 10.1434 91.5071 10.1604C91.5485 10.1797 91.596 10.1866 91.6911 10.2005L94.7481 10.6473C95.07 10.6944 95.231 10.7179 95.3055 10.7966C95.3703 10.865 95.4008 10.959 95.3884 11.0524C95.3743 11.1598 95.2577 11.2733 95.0247 11.5003L92.8134 13.654C92.7445 13.7212 92.71 13.7548 92.6878 13.7947C92.6681 13.8301 92.6554 13.8689 92.6506 13.9091C92.6451 13.9545 92.6532 14.0019 92.6695 14.0967L93.1912 17.1389C93.2463 17.4597 93.2738 17.6201 93.2221 17.7153C93.1771 17.7982 93.0971 17.8563 93.0044 17.8735C92.8979 17.8932 92.7538 17.8174 92.4657 17.6659L89.7327 16.2287C89.6476 16.1839 89.605 16.1615 89.5602 16.1527C89.5204 16.1449 89.4796 16.1449 89.4399 16.1527C89.395 16.1615 89.3524 16.1839 89.2673 16.2287L86.5343 17.6659C86.2462 17.8174 86.1021 17.8932 85.9956 17.8735C85.9029 17.8563 85.823 17.7982 85.778 17.7153C85.7263 17.6201 85.7538 17.4597 85.8088 17.1389L86.3306 14.0967C86.3468 14.0019 86.355 13.9545 86.3494 13.9091C86.3446 13.8689 86.3319 13.8301 86.3123 13.7947C86.29 13.7548 86.2555 13.7212 86.1866 13.654L83.9753 11.5003C83.7423 11.2733 83.6258 11.1598 83.6116 11.0524C83.5992 10.959 83.6297 10.865 83.6945 10.7966C83.769 10.7179 83.93 10.6944 84.2519 10.6473L87.3089 10.2005C87.404 10.1866 87.4516 10.1797 87.4929 10.1604C87.5296 10.1434 87.5626 10.1194 87.5901 10.0898C87.6212 10.0563 87.6425 10.0132 87.685 9.92708L89.0517 7.15835Z" stroke="#FFC700" stroke-width="2" stroke-linecap="round" stroke-linejoin="round"/>
</svg>
