<svg width="23" height="23" viewBox="0 0 23 23" fill="none" xmlns="http://www.w3.org/2000/svg">
<g clip-path="url(#clip0_85_1217)">
<path d="M6.70817 23.0003C7.76672 23.0003 8.62484 22.1422 8.62484 21.0837C8.62484 20.0251 7.76672 19.167 6.70817 19.167C5.64962 19.167 4.7915 20.0251 4.7915 21.0837C4.7915 22.1422 5.64962 23.0003 6.70817 23.0003Z" fill="white"/>
<path d="M16.2917 23.0003C17.3502 23.0003 18.2083 22.1422 18.2083 21.0837C18.2083 20.0251 17.3502 19.167 16.2917 19.167C15.2331 19.167 14.375 20.0251 14.375 21.0837C14.375 22.1422 15.2331 23.0003 16.2917 23.0003Z" fill="white"/>
<path d="M22.0418 2.875H20.1252V0.958333C20.1252 0.704168 20.0242 0.460412 19.8445 0.280689C19.6648 0.100967 19.421 0 19.1668 0C18.9127 0 18.6689 0.100967 18.4892 0.280689C18.3095 0.460412 18.2085 0.704168 18.2085 0.958333V2.875H16.2918C16.0377 2.875 15.7939 2.97597 15.6142 3.15569C15.4345 3.33541 15.3335 3.57917 15.3335 3.83333C15.3335 4.0875 15.4345 4.33125 15.6142 4.51098C15.7939 4.6907 16.0377 4.79167 16.2918 4.79167H18.2085V6.70833C18.2085 6.9625 18.3095 7.20625 18.4892 7.38598C18.6689 7.5657 18.9127 7.66667 19.1668 7.66667C19.421 7.66667 19.6648 7.5657 19.8445 7.38598C20.0242 7.20625 20.1252 6.9625 20.1252 6.70833V4.79167H22.0418C22.296 4.79167 22.5398 4.6907 22.7195 4.51098C22.8992 4.33125 23.0002 4.0875 23.0002 3.83333C23.0002 3.57917 22.8992 3.33541 22.7195 3.15569C22.5398 2.97597 22.296 2.875 22.0418 2.875Z" fill="white"/>
<path d="M20.8639 9.32075C20.74 9.29756 20.6127 9.2992 20.4894 9.32557C20.3661 9.35194 20.2493 9.40251 20.1457 9.47436C20.0422 9.54621 19.9539 9.6379 19.886 9.74412C19.8181 9.85035 19.772 9.96899 19.7503 10.0932C19.6308 10.7565 19.282 11.3567 18.7649 11.789C18.2478 12.2213 17.5953 12.4582 16.9213 12.4583H5.19225L4.29142 4.79167H12.4583C12.7125 4.79167 12.9563 4.6907 13.136 4.51098C13.3157 4.33125 13.4167 4.0875 13.4167 3.83333C13.4167 3.57917 13.3157 3.33541 13.136 3.15569C12.9563 2.97597 12.7125 2.875 12.4583 2.875H4.06525L4.025 2.53767C3.94241 1.83866 3.60627 1.19423 3.08026 0.726516C2.55426 0.258802 1.87495 0.000299802 1.17108 0L0.958333 0C0.704167 0 0.460412 0.100967 0.280689 0.280689C0.100967 0.460412 0 0.704168 0 0.958333C0 1.2125 0.100967 1.45626 0.280689 1.63598C0.460412 1.8157 0.704167 1.91667 0.958333 1.91667H1.17108C1.40581 1.9167 1.63236 2.00287 1.80777 2.15885C1.98318 2.31483 2.09525 2.52976 2.12271 2.76288L3.44138 13.9754C3.57827 15.1415 4.13854 16.2167 5.01583 16.997C5.89312 17.7773 7.02636 18.2084 8.20046 18.2083H18.2083C18.4625 18.2083 18.7063 18.1074 18.886 17.9276C19.0657 17.7479 19.1667 17.5042 19.1667 17.25C19.1667 16.9958 19.0657 16.7521 18.886 16.5724C18.7063 16.3926 18.4625 16.2917 18.2083 16.2917H8.20046C7.60583 16.2918 7.0258 16.1075 6.54025 15.7643C6.05471 15.421 5.68754 14.9356 5.48933 14.375H16.9213C18.0446 14.3751 19.1322 13.9806 19.9942 13.2603C20.8562 12.54 21.4377 11.5398 21.6372 10.4343C21.6596 10.3104 21.6574 10.1833 21.6306 10.0603C21.6039 9.93726 21.5531 9.8207 21.4813 9.71729C21.4095 9.61387 21.318 9.52562 21.2121 9.45758C21.1061 9.38954 20.9878 9.34304 20.8639 9.32075Z" fill="white"/>
</g>
<defs>
<clipPath id="clip0_85_1217">
<rect width="23" height="23" fill="white"/>
</clipPath>
</defs>
</svg>
