<svg width="43" height="43" viewBox="0 0 43 43" fill="none" xmlns="http://www.w3.org/2000/svg">
<path d="M28.6667 14.3333V8.06367C28.6667 6.57347 28.6667 5.82837 28.3528 5.37047C28.0785 4.97041 27.6537 4.69864 27.1756 4.61727C26.6283 4.52413 25.9517 4.83637 24.5987 5.46085L8.70573 12.7961C7.49903 13.353 6.89568 13.6315 6.45377 14.0634C6.0631 14.4452 5.7649 14.9112 5.58195 15.4259C5.375 16.0082 5.375 16.6727 5.375 18.0017V26.875M29.5625 25.9792H29.5804M5.375 20.0667L5.375 31.8917C5.375 33.8985 5.375 34.9019 5.76556 35.6685C6.10911 36.3427 6.65729 36.8909 7.33153 37.2344C8.09805 37.625 9.10148 37.625 11.1083 37.625H31.8917C33.8985 37.625 34.9019 37.625 35.6685 37.2344C36.3427 36.8909 36.8909 36.3427 37.2344 35.6685C37.625 34.9019 37.625 33.8985 37.625 31.8917V20.0667C37.625 18.0598 37.625 17.0564 37.2344 16.2899C36.8909 15.6156 36.3427 15.0674 35.6685 14.7239C34.9019 14.3333 33.8985 14.3333 31.8917 14.3333L11.1083 14.3333C9.10148 14.3333 8.09805 14.3333 7.33153 14.7239C6.65729 15.0674 6.10911 15.6156 5.76556 16.2899C5.375 17.0564 5.375 18.0598 5.375 20.0667ZM30.4583 25.9792C30.4583 26.4739 30.0573 26.875 29.5625 26.875C29.0677 26.875 28.6667 26.4739 28.6667 25.9792C28.6667 25.4844 29.0677 25.0833 29.5625 25.0833C30.0573 25.0833 30.4583 25.4844 30.4583 25.9792Z" stroke="#3B0EEE" stroke-width="2" stroke-linecap="round" stroke-linejoin="round"/>
</svg>
